kick coordinate motion generated from LLM joint_angles
version=1
nRows=24
nColumns=36
inDegrees=yes
endheader
time	pelvis_tilt	pelvis_list	pelvis_rotation	pelvis_tx	pelvis_ty	pelvis_tz	hip_flexion_r	hip_adduction_r	hip_rotation_r	knee_angle_r	knee_angle_r_beta	ankle_angle_r	subtalar_angle_r	mtp_angle_r	hip_flexion_l	hip_adduction_l	hip_rotation_l	knee_angle_l	knee_angle_l_beta	ankle_angle_l	subtalar_angle_l	mtp_angle_l	lumbar_extension	lumbar_bending	lumbar_rotation	arm_flex_r	arm_add_r	arm_rot_r	elbow_flex_r	pro_sup_r	arm_flex_l	arm_add_l	arm_rot_l	elbow_flex_l	pro_sup_l
0.500000	10.000000	5.000000	5.000000	0.000000	0.000000	0.000000	90.000000	0.000000	0.000000	120.000000	0.000000	90.000000	10.000000	20.000000	0.000000	0.000000	0.000000	0.000000	0.000000	0.000000	0.000000	0.000000	0.000000	0.000000	0.000000	0.000000	0.000000	0.000000	0.000000	0.000000	0.000000	0.000000	0.000000	0.000000	0.000000
0.506667	9.997807	4.998903	4.998903	0.000000	0.000000	0.000000	89.980262	0.000000	0.000000	119.973682	0.000000	89.980262	9.997807	19.995614	0.000000	0.000000	0.000000	0.000000	0.000000	0.000000	0.000000	0.000000	0.000000	0.000000	0.000000	0.000000	0.000000	0.000000	0.000000	0.000000	0.000000	0.000000	0.000000	0.000000	0.000000
0.513333	9.991228	4.995614	4.995614	0.000000	0.000000	0.000000	89.921055	0.000000	0.000000	119.894740	0.000000	89.921055	9.991228	19.982457	0.000000	0.000000	0.000000	0.000000	0.000000	0.000000	0.000000	0.000000	0.000000	0.000000	0.000000	0.000000	0.000000	0.000000	0.000000	0.000000	0.000000	0.000000	0.000000	0.000000	0.000000
0.520000	9.980267	4.990134	4.990134	0.000000	0.000000	0.000000	89.822406	0.000000	0.000000	119.763207	0.000000	89.822406	9.980267	19.960535	0.000000	0.000000	0.000000	0.000000	0.000000	0.000000	0.000000	0.000000	0.000000	0.000000	0.000000	0.000000	0.000000	0.000000	0.000000	0.000000	0.000000	0.000000	0.000000	0.000000	0.000000
0.526667	9.964929	4.982464	4.982464	0.000000	0.000000	0.000000	89.684357	0.000000	0.000000	119.579143	0.000000	89.684357	9.964929	19.929857	0.000000	0.000000	0.000000	0.000000	0.000000	0.000000	0.000000	0.000000	0.000000	0.000000	0.000000	0.000000	0.000000	0.000000	0.000000	0.000000	0.000000	0.000000	0.000000	0.000000	0.000000
0.533333	9.945219	4.972609	4.972609	0.000000	0.000000	0.000000	89.506971	0.000000	0.000000	119.342627	0.000000	89.506971	9.945219	19.890438	0.000000	0.000000	0.000000	0.000000	0.000000	0.000000	0.000000	0.000000	0.000000	0.000000	0.000000	0.000000	0.000000	0.000000	0.000000	0.000000	0.000000	0.000000	0.000000	0.000000	0.000000
0.540000	9.921147	4.960574	4.960574	0.000000	0.000000	0.000000	89.290323	0.000000	0.000000	119.053764	0.000000	89.290323	9.921147	19.842294	0.000000	0.000000	0.000000	0.000000	0.000000	0.000000	0.000000	0.000000	0.000000	0.000000	0.000000	0.000000	0.000000	0.000000	0.000000	0.000000	0.000000	0.000000	0.000000	0.000000	0.000000
0.546667	9.892723	4.946362	4.946362	0.000000	0.000000	0.000000	89.034510	0.000000	0.000000	118.712680	0.000000	89.034510	9.892723	19.785447	0.000000	0.000000	0.000000	0.000000	0.000000	0.000000	0.000000	0.000000	0.000000	0.000000	0.000000	0.000000	0.000000	0.000000	0.000000	0.000000	0.000000	0.000000	0.000000	0.000000	0.000000
0.553333	9.859960	4.929980	4.929980	0.000000	0.000000	0.000000	88.739643	0.000000	0.000000	118.319524	0.000000	88.739643	9.859960	19.719921	0.000000	0.000000	0.000000	0.000000	0.000000	0.000000	0.000000	0.000000	0.000000	0.000000	0.000000	0.000000	0.000000	0.000000	0.000000	0.000000	0.000000	0.000000	0.000000	0.000000	0.000000
0.560000	9.822873	4.911436	4.911436	0.000000	0.000000	0.000000	88.405853	0.000000	0.000000	117.874470	0.000000	88.405853	9.822873	19.645745	0.000000	0.000000	0.000000	0.000000	0.000000	0.000000	0.000000	0.000000	0.000000	0.000000	0.000000	0.000000	0.000000	0.000000	0.000000	0.000000	0.000000	0.000000	0.000000	0.000000	0.000000
0.566667	9.781476	4.890738	4.890738	0.000000	0.000000	0.000000	88.033284	0.000000	0.000000	117.377712	0.000000	88.033284	9.781476	19.562952	0.000000	0.000000	0.000000	0.000000	0.000000	0.000000	0.000000	0.000000	0.000000	0.000000	0.000000	0.000000	0.000000	0.000000	0.000000	0.000000	0.000000	0.000000	0.000000	0.000000	0.000000
0.573333	9.735789	4.867895	4.867895	0.000000	0.000000	0.000000	87.622101	0.000000	0.000000	116.829468	0.000000	87.622101	9.735789	19.471578	0.000000	0.000000	0.000000	0.000000	0.000000	0.000000	0.000000	0.000000	0.000000	0.000000	0.000000	0.000000	0.000000	0.000000	0.000000	0.000000	0.000000	0.000000	0.000000	0.000000	0.000000
0.580000	9.685832	4.842916	4.842916	0.000000	0.000000	0.000000	87.172485	0.000000	0.000000	116.229979	0.000000	87.172485	9.685832	19.371663	0.000000	0.000000	0.000000	0.000000	0.000000	0.000000	0.000000	0.000000	0.000000	0.000000	0.000000	0.000000	0.000000	0.000000	0.000000	0.000000	0.000000	0.000000	0.000000	0.000000	0.000000
0.586667	9.631626	4.815813	4.815813	0.000000	0.000000	0.000000	86.684631	0.000000	0.000000	115.579508	0.000000	86.684631	9.631626	19.263251	0.000000	0.000000	0.000000	0.000000	0.000000	0.000000	0.000000	0.000000	0.000000	0.000000	0.000000	0.000000	0.000000	0.000000	0.000000	0.000000	0.000000	0.000000	0.000000	0.000000	0.000000
0.593333	9.573195	4.786597	4.786597	0.000000	0.000000	0.000000	86.158755	0.000000	0.000000	114.878340	0.000000	86.158755	9.573195	19.146390	0.000000	0.000000	0.000000	0.000000	0.000000	0.000000	0.000000	0.000000	0.000000	0.000000	0.000000	0.000000	0.000000	0.000000	0.000000	0.000000	0.000000	0.000000	0.000000	0.000000	0.000000
0.600000	9.510565	4.755283	4.755283	0.000000	0.000000	0.000000	85.595086	0.000000	0.000000	114.126782	0.000000	85.595086	9.510565	19.021130	0.000000	0.000000	0.000000	0.000000	0.000000	0.000000	0.000000	0.000000	0.000000	0.000000	0.000000	0.000000	0.000000	0.000000	0.000000	0.000000	0.000000	0.000000	0.000000	0.000000	0.000000
0.606667	9.443764	4.721882	4.721882	0.000000	0.000000	0.000000	84.993873	0.000000	0.000000	113.325164	0.000000	84.993873	9.443764	18.887527	0.000000	0.000000	0.000000	0.000000	0.000000	0.000000	0.000000	0.000000	0.000000	0.000000	0.000000	0.000000	0.000000	0.000000	0.000000	0.000000	0.000000	0.000000	0.000000	0.000000	0.000000
0.613333	9.372820	4.686410	4.686410	0.000000	0.000000	0.000000	84.355379	0.000000	0.000000	112.473839	0.000000	84.355379	9.372820	18.745640	0.000000	0.000000	0.000000	0.000000	0.000000	0.000000	0.000000	0.000000	0.000000	0.000000	0.000000	0.000000	0.000000	0.000000	0.000000	0.000000	0.000000	0.000000	0.000000	0.000000	0.000000
0.620000	9.297765	4.648882	4.648882	0.000000	0.000000	0.000000	83.679884	0.000000	0.000000	111.573178	0.000000	83.679884	9.297765	18.595530	0.000000	0.000000	0.000000	0.000000	0.000000	0.000000	0.000000	0.000000	0.000000	0.000000	0.000000	0.000000	0.000000	0.000000	0.000000	0.000000	0.000000	0.000000	0.000000	0.000000	0.000000
0.626667	9.218632	4.609316	4.609316	0.000000	0.000000	0.000000	82.967684	0.000000	0.000000	110.623578	0.000000	82.967684	9.218632	18.437263	0.000000	0.000000	0.000000	0.000000	0.000000	0.000000	0.000000	0.000000	0.000000	0.000000	0.000000	0.000000	0.000000	0.000000	0.000000	0.000000	0.000000	0.000000	0.000000	0.000000	0.000000
0.633333	9.135455	4.567727	4.567727	0.000000	0.000000	0.000000	82.219091	0.000000	0.000000	109.625455	0.000000	82.219091	9.135455	18.270909	0.000000	0.000000	0.000000	0.000000	0.000000	0.000000	0.000000	0.000000	0.000000	0.000000	0.000000	0.000000	0.000000	0.000000	0.000000	0.000000	0.000000	0.000000	0.000000	0.000000	0.000000
0.640000	9.048271	4.524135	4.524135	0.000000	0.000000	0.000000	81.434435	0.000000	0.000000	108.579246	0.000000	81.434435	9.048271	18.096541	0.000000	0.000000	0.000000	0.000000	0.000000	0.000000	0.000000	0.000000	0.000000	0.000000	0.000000	0.000000	0.000000	0.000000	0.000000	0.000000	0.000000	0.000000	0.000000	0.000000	0.000000
0.646667	8.957118	4.478559	4.478559	0.000000	0.000000	0.000000	80.614058	0.000000	0.000000	107.485411	0.000000	80.614058	8.957118	17.914235	0.000000	0.000000	0.000000	0.000000	0.000000	0.000000	0.000000	0.000000	0.000000	0.000000	0.000000	0.000000	0.000000	0.000000	0.000000	0.000000	0.000000	0.000000	0.000000	0.000000	0.000000
0.653333	8.862036	4.431018	4.431018	0.000000	0.000000	0.000000	79.758322	0.000000	0.000000	106.344430	0.000000	79.758322	8.862036	17.724072	0.000000	0.000000	0.000000	0.000000	0.000000	0.000000	0.000000	0.000000	0.000000	0.000000	0.000000	0.000000	0.000000	0.000000	0.000000	0.000000	0.000000	0.000000	0.000000	0.000000	0.000000
